<svg width="451" height="119" viewBox="0 0 451 119" fill="none" xmlns="http://www.w3.org/2000/svg">
<g filter="url(#filter0_dd_2148_23668)">
<path d="M22.1044 75.4594L22 38.2019L50.4264 54.7273L50.5327 91.9833L22.1044 75.4594ZM47.055 22L75.4968 38.5326L51.9115 52.1537L23.4709 35.6212L47.055 22ZM76.982 41.1066L77 47.8613L64.4725 55.0966C64.246 55.2274 64.0581 55.4156 63.9276 55.6424C63.7971 55.8691 63.7288 56.1262 63.7294 56.3878L63.8119 86.0455L53.5033 92L53.3973 54.7273L76.982 41.1066Z" fill="white"/>
</g>
<g filter="url(#filter1_dd_2148_23668)">
<path d="M92.005 80.5V34.675H111.895C116.922 34.675 120.8 35.8883 123.53 38.315C126.26 40.6983 127.625 44.0567 127.625 48.39C127.625 51.2067 126.997 53.6333 125.74 55.67C124.527 57.7067 122.75 59.2667 120.41 60.35C118.07 61.4333 115.232 61.975 111.895 61.975L112.48 61H114.625C116.402 61 117.94 61.4333 119.24 62.3C120.583 63.1667 121.753 64.5317 122.75 66.395L130.42 80.5H121.255L113.325 65.875C112.805 64.9217 112.22 64.185 111.57 63.665C110.92 63.1017 110.183 62.7117 109.36 62.495C108.537 62.2783 107.583 62.17 106.5 62.17H100.325V80.5H92.005ZM100.325 55.995H110.465C113.455 55.995 115.708 55.3883 117.225 54.175C118.785 52.9183 119.565 51.055 119.565 48.585C119.565 46.1583 118.785 44.3383 117.225 43.125C115.708 41.8683 113.455 41.24 110.465 41.24H100.325V55.995ZM135.266 41.89V33.96H144.366V41.89H135.266ZM135.786 80.5V48.715H143.911V80.5H135.786ZM154.498 80.5V54.825H148.388V48.715H156.838L154.498 50.86V48.65C154.498 44.1433 155.668 40.7417 158.008 38.445C160.391 36.1483 164.075 34.8483 169.058 34.545L172.243 34.35L172.763 40.33L169.773 40.525C168.04 40.6117 166.653 40.9367 165.613 41.5C164.573 42.02 163.815 42.7567 163.338 43.71C162.861 44.6633 162.623 45.8767 162.623 47.35V49.755L161.583 48.715H171.268V54.825H162.623V80.5H154.498ZM186.177 81.15C183.881 81.15 181.822 80.7167 180.002 79.85C178.226 78.94 176.817 77.7267 175.777 76.21C174.781 74.6933 174.282 72.9817 174.282 71.075C174.282 68.735 174.889 66.8933 176.102 65.55C177.316 64.1633 179.287 63.1667 182.017 62.56C184.747 61.9533 188.409 61.65 193.002 61.65H196.252V66.33H193.067C191.031 66.33 189.319 66.4167 187.932 66.59C186.546 66.72 185.419 66.9583 184.552 67.305C183.729 67.6083 183.122 68.0417 182.732 68.605C182.386 69.1683 182.212 69.8617 182.212 70.685C182.212 72.115 182.711 73.285 183.707 74.195C184.704 75.105 186.091 75.56 187.867 75.56C189.297 75.56 190.554 75.235 191.637 74.585C192.764 73.8917 193.652 72.96 194.302 71.79C194.952 70.62 195.277 69.2767 195.277 67.76V60.285C195.277 58.1183 194.801 56.5583 193.847 55.605C192.894 54.6517 191.291 54.175 189.037 54.175C187.261 54.175 185.441 54.4567 183.577 55.02C181.714 55.54 179.829 56.3633 177.922 57.49L175.582 51.965C176.709 51.185 178.031 50.5133 179.547 49.95C181.107 49.3433 182.732 48.8883 184.422 48.585C186.156 48.2383 187.781 48.065 189.297 48.065C192.417 48.065 194.974 48.5417 196.967 49.495C199.004 50.4483 200.521 51.9 201.517 53.85C202.514 55.7567 203.012 58.2267 203.012 61.26V80.5H195.407V73.74H195.927C195.624 75.2567 195.017 76.5783 194.107 77.705C193.241 78.7883 192.136 79.6333 190.792 80.24C189.449 80.8467 187.911 81.15 186.177 81.15ZM213.802 92.2L220.432 77.575V80.955L206.457 48.715H215.102L224.982 73.35H223.032L233.107 48.715H241.297L222.187 92.2H213.802ZM260.186 81.15C256.589 81.15 253.491 80.4783 250.891 79.135C248.291 77.7917 246.276 75.885 244.846 73.415C243.459 70.945 242.766 68.02 242.766 64.64C242.766 61.3467 243.438 58.465 244.781 55.995C246.168 53.525 248.053 51.5967 250.436 50.21C252.863 48.78 255.614 48.065 258.691 48.065C261.724 48.065 264.324 48.715 266.491 50.015C268.658 51.315 270.326 53.1567 271.496 55.54C272.709 57.9233 273.316 60.7617 273.316 64.055V66.46H249.331V61.78H267.596L266.556 62.755C266.556 59.8083 265.906 57.555 264.606 55.995C263.306 54.3917 261.443 53.59 259.016 53.59C257.196 53.59 255.636 54.0233 254.336 54.89C253.079 55.7133 252.104 56.905 251.411 58.465C250.761 59.9817 250.436 61.8017 250.436 63.925V64.38C250.436 66.7633 250.804 68.735 251.541 70.295C252.278 71.855 253.383 73.025 254.856 73.805C256.329 74.585 258.149 74.975 260.316 74.975C262.093 74.975 263.869 74.715 265.646 74.195C267.423 73.6317 269.048 72.765 270.521 71.595L272.796 77.055C271.279 78.3117 269.373 79.3083 267.076 80.045C264.779 80.7817 262.483 81.15 260.186 81.15ZM294.183 81.15C289.937 81.15 286.773 80.0883 284.693 77.965C282.613 75.8417 281.573 72.7433 281.573 68.67V54.825H275.463V48.715H281.573V39.225H289.698V48.715H299.318V54.825H289.698V68.215C289.698 70.295 290.153 71.855 291.063 72.895C291.973 73.935 293.447 74.455 295.483 74.455C296.09 74.455 296.718 74.39 297.368 74.26C298.018 74.0867 298.69 73.9133 299.383 73.74L300.618 79.72C299.838 80.1533 298.842 80.5 297.628 80.76C296.458 81.02 295.31 81.15 294.183 81.15ZM304.997 80.5V71.465H314.097V80.5H304.997ZM332.849 81.15C330.076 81.15 327.628 80.4783 325.504 79.135C323.424 77.7917 321.799 75.885 320.629 73.415C319.459 70.9017 318.874 67.955 318.874 64.575C318.874 61.1517 319.459 58.2267 320.629 55.8C321.799 53.33 323.424 51.4233 325.504 50.08C327.628 48.7367 330.076 48.065 332.849 48.065C335.493 48.065 337.789 48.715 339.739 50.015C341.733 51.315 343.076 53.0267 343.769 55.15H343.054V34.675H351.179V80.5H343.249V73.74H343.834C343.184 75.9933 341.863 77.7917 339.869 79.135C337.876 80.4783 335.536 81.15 332.849 81.15ZM335.124 74.975C337.551 74.975 339.501 74.1083 340.974 72.375C342.448 70.5983 343.184 67.9983 343.184 64.575C343.184 61.1083 342.448 58.53 340.974 56.84C339.501 55.1067 337.551 54.24 335.124 54.24C332.698 54.24 330.748 55.1067 329.274 56.84C327.801 58.53 327.064 61.1083 327.064 64.575C327.064 67.9983 327.801 70.5983 329.274 72.375C330.748 74.1083 332.698 74.975 335.124 74.975ZM375.269 81.15C371.672 81.15 368.574 80.4783 365.974 79.135C363.374 77.7917 361.359 75.885 359.929 73.415C358.542 70.945 357.849 68.02 357.849 64.64C357.849 61.3467 358.521 58.465 359.864 55.995C361.251 53.525 363.136 51.5967 365.519 50.21C367.946 48.78 370.697 48.065 373.774 48.065C376.807 48.065 379.407 48.715 381.574 50.015C383.741 51.315 385.409 53.1567 386.579 55.54C387.792 57.9233 388.399 60.7617 388.399 64.055V66.46H364.414V61.78H382.679L381.639 62.755C381.639 59.8083 380.989 57.555 379.689 55.995C378.389 54.3917 376.526 53.59 374.099 53.59C372.279 53.59 370.719 54.0233 369.419 54.89C368.162 55.7133 367.187 56.905 366.494 58.465C365.844 59.9817 365.519 61.8017 365.519 63.925V64.38C365.519 66.7633 365.887 68.735 366.624 70.295C367.361 71.855 368.466 73.025 369.939 73.805C371.412 74.585 373.232 74.975 375.399 74.975C377.176 74.975 378.952 74.715 380.729 74.195C382.506 73.6317 384.131 72.765 385.604 71.595L387.879 77.055C386.362 78.3117 384.456 79.3083 382.159 80.045C379.862 80.7817 377.566 81.15 375.269 81.15ZM403.686 80.5L389.906 48.715H398.551L408.366 73.35H406.416L416.556 48.715H424.681L410.706 80.5H403.686Z" fill="white"/>
</g>
<defs>
<filter id="filter0_dd_2148_23668" x="0" y="0" width="101" height="116" filterUnits="userSpaceOnUse" color-interpolation-filters="sRGB">
<feFlood flood-opacity="0" result="BackgroundImageFix"/>
<feColorMatrix in="SourceAlpha" type="matrix" values="0 0 0 0 0 0 0 0 0 0 0 0 0 0 0 0 0 0 127 0" result="hardAlpha"/>
<feOffset dx="4" dy="4"/>
<feGaussianBlur stdDeviation="10"/>
<feComposite in2="hardAlpha" operator="out"/>
<feColorMatrix type="matrix" values="0 0 0 0 1 0 0 0 0 1 0 0 0 0 1 0 0 0 0.2 0"/>
<feBlend mode="normal" in2="BackgroundImageFix" result="effect1_dropShadow_2148_23668"/>
<feColorMatrix in="SourceAlpha" type="matrix" values="0 0 0 0 0 0 0 0 0 0 0 0 0 0 0 0 0 0 127 0" result="hardAlpha"/>
<feOffset dx="-4" dy="-4"/>
<feGaussianBlur stdDeviation="9"/>
<feComposite in2="hardAlpha" operator="out"/>
<feColorMatrix type="matrix" values="0 0 0 0 1 0 0 0 0 1 0 0 0 0 1 0 0 0 0.2 0"/>
<feBlend mode="normal" in2="effect1_dropShadow_2148_23668" result="effect2_dropShadow_2148_23668"/>
<feBlend mode="normal" in="SourceGraphic" in2="effect2_dropShadow_2148_23668" result="shape"/>
</filter>
<filter id="filter1_dd_2148_23668" x="70.0039" y="11.96" width="380.676" height="106.24" filterUnits="userSpaceOnUse" color-interpolation-filters="sRGB">
<feFlood flood-opacity="0" result="BackgroundImageFix"/>
<feColorMatrix in="SourceAlpha" type="matrix" values="0 0 0 0 0 0 0 0 0 0 0 0 0 0 0 0 0 0 127 0" result="hardAlpha"/>
<feMorphology radius="4" operator="dilate" in="SourceAlpha" result="effect1_dropShadow_2148_23668"/>
<feOffset dx="4" dy="4"/>
<feGaussianBlur stdDeviation="9"/>
<feComposite in2="hardAlpha" operator="out"/>
<feColorMatrix type="matrix" values="0 0 0 0 1 0 0 0 0 1 0 0 0 0 1 0 0 0 0.2 0"/>
<feBlend mode="normal" in2="BackgroundImageFix" result="effect1_dropShadow_2148_23668"/>
<feColorMatrix in="SourceAlpha" type="matrix" values="0 0 0 0 0 0 0 0 0 0 0 0 0 0 0 0 0 0 127 0" result="hardAlpha"/>
<feOffset dx="-4" dy="-4"/>
<feGaussianBlur stdDeviation="9"/>
<feComposite in2="hardAlpha" operator="out"/>
<feColorMatrix type="matrix" values="0 0 0 0 1 0 0 0 0 1 0 0 0 0 1 0 0 0 0.2 0"/>
<feBlend mode="normal" in2="effect1_dropShadow_2148_23668" result="effect2_dropShadow_2148_23668"/>
<feBlend mode="normal" in="SourceGraphic" in2="effect2_dropShadow_2148_23668" result="shape"/>
</filter>
</defs>
</svg>
