<svg width="414" height="85" viewBox="0 0 414 85" fill="none" xmlns="http://www.w3.org/2000/svg">
<path d="M0.104421 60.9594L0 23.7019L28.4264 40.2273L28.5327 77.4833L0.104421 60.9594ZM25.055 7.5L53.4968 24.0326L29.9115 37.6537L1.47091 21.1212L25.055 7.5ZM54.982 26.6066L55 33.3613L42.4725 40.5966C42.246 40.7274 42.0581 40.9156 41.9276 41.1424C41.7971 41.3691 41.7288 41.6262 41.7294 41.8878L41.8119 71.5455L31.5033 77.5L31.3973 40.2273L54.982 26.6066Z" fill="white"/>
<path d="M70.005 66V20.175H89.895C94.9217 20.175 98.8 21.3883 101.53 23.815C104.26 26.1983 105.625 29.5567 105.625 33.89C105.625 36.7067 104.997 39.1333 103.74 41.17C102.527 43.2067 100.75 44.7667 98.41 45.85C96.07 46.9333 93.2317 47.475 89.895 47.475L90.48 46.5H92.625C94.4017 46.5 95.94 46.9333 97.24 47.8C98.5833 48.6667 99.7533 50.0317 100.75 51.895L108.42 66H99.255L91.325 51.375C90.805 50.4217 90.22 49.685 89.57 49.165C88.92 48.6017 88.1833 48.2117 87.36 47.995C86.5367 47.7783 85.5833 47.67 84.5 47.67H78.325V66H70.005ZM78.325 41.495H88.465C91.455 41.495 93.7083 40.8883 95.225 39.675C96.785 38.4183 97.565 36.555 97.565 34.085C97.565 31.6583 96.785 29.8383 95.225 28.625C93.7083 27.3683 91.455 26.74 88.465 26.74H78.325V41.495ZM113.266 27.39V19.46H122.366V27.39H113.266ZM113.786 66V34.215H121.911V66H113.786ZM132.498 66V40.325H126.388V34.215H134.838L132.498 36.36V34.15C132.498 29.6433 133.668 26.2417 136.008 23.945C138.391 21.6483 142.075 20.3483 147.058 20.045L150.243 19.85L150.763 25.83L147.773 26.025C146.04 26.1117 144.653 26.4367 143.613 27C142.573 27.52 141.815 28.2567 141.338 29.21C140.861 30.1633 140.623 31.3767 140.623 32.85V35.255L139.583 34.215H149.268V40.325H140.623V66H132.498ZM164.177 66.65C161.881 66.65 159.822 66.2167 158.002 65.35C156.226 64.44 154.817 63.2267 153.777 61.71C152.781 60.1933 152.282 58.4817 152.282 56.575C152.282 54.235 152.889 52.3933 154.102 51.05C155.316 49.6633 157.287 48.6667 160.017 48.06C162.747 47.4533 166.409 47.15 171.002 47.15H174.252V51.83H171.067C169.031 51.83 167.319 51.9167 165.932 52.09C164.546 52.22 163.419 52.4583 162.552 52.805C161.729 53.1083 161.122 53.5417 160.732 54.105C160.386 54.6683 160.212 55.3617 160.212 56.185C160.212 57.615 160.711 58.785 161.707 59.695C162.704 60.605 164.091 61.06 165.867 61.06C167.297 61.06 168.554 60.735 169.637 60.085C170.764 59.3917 171.652 58.46 172.302 57.29C172.952 56.12 173.277 54.7767 173.277 53.26V45.785C173.277 43.6183 172.801 42.0583 171.847 41.105C170.894 40.1517 169.291 39.675 167.037 39.675C165.261 39.675 163.441 39.9567 161.577 40.52C159.714 41.04 157.829 41.8633 155.922 42.99L153.582 37.465C154.709 36.685 156.031 36.0133 157.547 35.45C159.107 34.8433 160.732 34.3883 162.422 34.085C164.156 33.7383 165.781 33.565 167.297 33.565C170.417 33.565 172.974 34.0417 174.967 34.995C177.004 35.9483 178.521 37.4 179.517 39.35C180.514 41.2567 181.012 43.7267 181.012 46.76V66H173.407V59.24H173.927C173.624 60.7567 173.017 62.0783 172.107 63.205C171.241 64.2883 170.136 65.1333 168.792 65.74C167.449 66.3467 165.911 66.65 164.177 66.65ZM191.802 77.7L198.432 63.075V66.455L184.457 34.215H193.102L202.982 58.85H201.032L211.107 34.215H219.297L200.187 77.7H191.802ZM238.186 66.65C234.589 66.65 231.491 65.9783 228.891 64.635C226.291 63.2917 224.276 61.385 222.846 58.915C221.459 56.445 220.766 53.52 220.766 50.14C220.766 46.8467 221.438 43.965 222.781 41.495C224.168 39.025 226.053 37.0967 228.436 35.71C230.863 34.28 233.614 33.565 236.691 33.565C239.724 33.565 242.324 34.215 244.491 35.515C246.658 36.815 248.326 38.6567 249.496 41.04C250.709 43.4233 251.316 46.2617 251.316 49.555V51.96H227.331V47.28H245.596L244.556 48.255C244.556 45.3083 243.906 43.055 242.606 41.495C241.306 39.8917 239.443 39.09 237.016 39.09C235.196 39.09 233.636 39.5233 232.336 40.39C231.079 41.2133 230.104 42.405 229.411 43.965C228.761 45.4817 228.436 47.3017 228.436 49.425V49.88C228.436 52.2633 228.804 54.235 229.541 55.795C230.278 57.355 231.383 58.525 232.856 59.305C234.329 60.085 236.149 60.475 238.316 60.475C240.093 60.475 241.869 60.215 243.646 59.695C245.423 59.1317 247.048 58.265 248.521 57.095L250.796 62.555C249.279 63.8117 247.373 64.8083 245.076 65.545C242.779 66.2817 240.483 66.65 238.186 66.65ZM272.183 66.65C267.937 66.65 264.773 65.5883 262.693 63.465C260.613 61.3417 259.573 58.2433 259.573 54.17V40.325H253.463V34.215H259.573V24.725H267.698V34.215H277.318V40.325H267.698V53.715C267.698 55.795 268.153 57.355 269.063 58.395C269.973 59.435 271.447 59.955 273.483 59.955C274.09 59.955 274.718 59.89 275.368 59.76C276.018 59.5867 276.69 59.4133 277.383 59.24L278.618 65.22C277.838 65.6533 276.842 66 275.628 66.26C274.458 66.52 273.31 66.65 272.183 66.65ZM282.997 66V56.965H292.097V66H282.997ZM310.849 66.65C308.076 66.65 305.628 65.9783 303.504 64.635C301.424 63.2917 299.799 61.385 298.629 58.915C297.459 56.4017 296.874 53.455 296.874 50.075C296.874 46.6517 297.459 43.7267 298.629 41.3C299.799 38.83 301.424 36.9233 303.504 35.58C305.628 34.2367 308.076 33.565 310.849 33.565C313.493 33.565 315.789 34.215 317.739 35.515C319.733 36.815 321.076 38.5267 321.769 40.65H321.054V20.175H329.179V66H321.249V59.24H321.834C321.184 61.4933 319.863 63.2917 317.869 64.635C315.876 65.9783 313.536 66.65 310.849 66.65ZM313.124 60.475C315.551 60.475 317.501 59.6083 318.974 57.875C320.448 56.0983 321.184 53.4983 321.184 50.075C321.184 46.6083 320.448 44.03 318.974 42.34C317.501 40.6067 315.551 39.74 313.124 39.74C310.698 39.74 308.748 40.6067 307.274 42.34C305.801 44.03 305.064 46.6083 305.064 50.075C305.064 53.4983 305.801 56.0983 307.274 57.875C308.748 59.6083 310.698 60.475 313.124 60.475ZM353.269 66.65C349.672 66.65 346.574 65.9783 343.974 64.635C341.374 63.2917 339.359 61.385 337.929 58.915C336.542 56.445 335.849 53.52 335.849 50.14C335.849 46.8467 336.521 43.965 337.864 41.495C339.251 39.025 341.136 37.0967 343.519 35.71C345.946 34.28 348.697 33.565 351.774 33.565C354.807 33.565 357.407 34.215 359.574 35.515C361.741 36.815 363.409 38.6567 364.579 41.04C365.792 43.4233 366.399 46.2617 366.399 49.555V51.96H342.414V47.28H360.679L359.639 48.255C359.639 45.3083 358.989 43.055 357.689 41.495C356.389 39.8917 354.526 39.09 352.099 39.09C350.279 39.09 348.719 39.5233 347.419 40.39C346.162 41.2133 345.187 42.405 344.494 43.965C343.844 45.4817 343.519 47.3017 343.519 49.425V49.88C343.519 52.2633 343.887 54.235 344.624 55.795C345.361 57.355 346.466 58.525 347.939 59.305C349.412 60.085 351.232 60.475 353.399 60.475C355.176 60.475 356.952 60.215 358.729 59.695C360.506 59.1317 362.131 58.265 363.604 57.095L365.879 62.555C364.362 63.8117 362.456 64.8083 360.159 65.545C357.862 66.2817 355.566 66.65 353.269 66.65ZM381.686 66L367.906 34.215H376.551L386.366 58.85H384.416L394.556 34.215H402.681L388.706 66H381.686Z" fill="white"/>
</svg>
